<?xml version="1.0" encoding="UTF-8"?>
<svg width="49px" height="54px" viewBox="0 0 49 54" version="1.1" xmlns="http://www.w3.org/2000/svg" xmlns:xlink="http://www.w3.org/1999/xlink">
    <!-- Generator: Sketch 48.1 (47250) - http://www.bohemiancoding.com/sketch -->
    <title>Combined Shape</title>
    <desc>Created with Sketch.</desc>
    <defs>
        <path d="M4,11 L4,50 L45,50 L45,11 L4,11 Z M0,11 L0,7 L19,7 L19,4.94999094 C17.8588798,4.71835578 17,3.70947896 17,2.5 C17,1.11928813 18.1192881,0 19.5,0 C20.8807119,0 22,1.11928813 22,2.5 C22,3.70947896 21.1411202,4.71835578 20,4.94999094 L20,7 L30,7 L30,4.94999094 C28.8588798,4.71835578 28,3.70947896 28,2.5 C28,1.11928813 29.1192881,0 30.5,0 C31.8807119,0 33,1.11928813 33,2.5 C33,3.70947896 32.1411202,4.71835578 31,4.94999094 L31,7 L49,7 L49,11 L49,50 L49,54 L0,54 L0,50 L1.27103529e-15,11 Z M18.144487,29.9879105 L23.7673107,29.9879105 L23.7673107,33.2728233 L18.144487,33.2728233 L18.144487,39.679883 L14.6524175,39.679883 L14.6524175,33.2728233 L9,33.2728233 L9,29.9879105 L14.6524175,29.9879105 L14.6524175,23.9951642 L18.144487,23.9951642 L18.144487,29.9879105 Z M30.6478713,29.4256282 L32.8378132,29.4256282 C33.9426542,29.4157635 34.818129,29.1296929 35.4642637,28.5674077 C36.1103984,28.0051225 36.433461,27.1913009 36.433461,26.1259185 C36.433461,25.0999946 36.1646532,24.3034359 35.6270297,23.7362184 C35.0894061,23.1690009 34.2681861,22.8853964 33.1633451,22.8853964 C32.1966091,22.8853964 31.4025165,23.1640686 30.7810434,23.7214215 C30.1595703,24.2787743 29.8488385,25.0062815 29.8488385,25.9039649 L26.2531907,25.9039649 C26.2531907,24.7991238 26.5466597,23.7929444 27.1336065,22.8853964 C27.7205533,21.9778484 28.5393072,21.2700702 29.5898926,20.7620406 C30.6404781,20.254011 31.8168202,20 33.1189543,20 C35.2694486,20 36.9587449,20.5400816 38.1868941,21.620261 C39.4150434,22.7004405 40.0291088,24.2023113 40.0291088,26.1259185 C40.0291088,27.0926544 39.720843,28.0026549 39.1043022,28.8559473 C38.4877615,29.7092398 37.6912027,30.3528987 36.7146021,30.7869434 C37.8983604,31.1913941 38.7984964,31.8276547 39.4150372,32.6957441 C40.031578,33.5638335 40.3398438,34.5996064 40.3398438,35.803094 C40.3398438,37.7365659 39.6764558,39.2754286 38.3496601,40.4197282 C37.0228644,41.5640279 35.2793132,42.1361691 33.1189543,42.1361691 C31.0473774,42.1361691 29.3506826,41.5837569 28.0288192,40.4789158 C26.7069558,39.3740748 26.046034,37.9042636 26.046034,36.0694383 L29.6416818,36.0694383 C29.6416818,37.0164449 29.9598121,37.7858763 30.5960821,38.3777554 C31.2323522,38.9696345 32.088098,39.2655697 33.1633451,39.2655697 C34.2780508,39.2655697 35.1559917,38.9696345 35.7971941,38.3777554 C36.4383965,37.7858763 36.7589929,36.9276644 36.7589929,35.803094 C36.7589929,34.668659 36.4235997,33.7956504 35.7528034,33.1840419 C35.082007,32.5724335 34.0856921,32.2666338 32.7638286,32.2666338 L30.6478713,32.2666338 L30.6478713,29.4256282 Z" id="path-1"></path>
    </defs>
    <g id="Desktop-HD" stroke="none" stroke-width="1" fill="none" fill-rule="evenodd" transform="translate(-173.000000, -2369.000000)">
        <g id="third-function" transform="translate(0.000000, 2232.000000)">
            <g id="tomorrow.icon" transform="translate(173.000000, 137.000000)">
                <g id="Combined-Shape">
                    <use fill="#FCFCFC" fill-rule="evenodd" xlink:href="#path-1"></use>
                    <path stroke="#2D9DFF" stroke-width="6" d="M1,53 L1,8 L48,8 L48,53 L1,53 Z M3,10 L3,7 L0,10 L3,10 Z M28,10 L33,10 L33,2.49777572 L30.5967966,2.00995117 C30.8322874,2.05775329 31,2.26066342 31,2.5 C31,2.77614237 30.7761424,3 30.5,3 C30.2238576,3 30,2.77614237 30,2.5 C30,2.26066342 30.1677126,2.05775329 30.4032034,2.00995117 L28,2.49777572 L28,10 Z M46,10 L49,10 L46,7 L46,10 Z M46,51 L46,54 L49,51 L46,51 Z M3,51 L0,51 L3,54 L3,51 Z M14.2076174,4 L19,4 L19,7 L16,7 L16,4.94999094 L19,4.94999094 L18.4032034,7.89003071 C16.3579408,7.47486431 14.7588511,5.94635313 14.2076174,4 Z M24.7923826,4 C24.2411489,5.94635313 22.6420592,7.47486431 20.5967966,7.89003071 L20,4.94999094 L23,4.94999094 L23,7 L20,7 L20,4 L24.7923826,4 Z M21.0522235,32.9879105 L23.7673107,32.9879105 L22.4097671,31.6303669 L23.7673107,30.2728233 L21.0522235,30.2728233 L20.7673107,29.9879105 L20.7673107,30.2728233 L12,30.2728233 L12,29.9879105 L11.7150872,30.2728233 L9,30.2728233 L10.3575436,31.6303669 L9,32.9879105 L11.7150872,32.9879105 L12,33.2728233 L12,32.9879105 L15.144487,32.9879105 L15.144487,36.679883 L14.6524175,36.679883 L15.144487,37.1719525 L15.144487,39.679883 L16.3984523,38.4259177 L17.6524175,39.679883 L17.6524175,37.1719525 L18.144487,36.679883 L17.6524175,36.679883 L17.6524175,26.9951642 L18.144487,26.9951642 L17.6524175,26.5030948 L17.6524175,23.9951642 L16.3984523,25.2491295 L15.144487,23.9951642 L15.144487,26.5030948 L14.6524175,26.9951642 L15.144487,26.9951642 L15.144487,32.9879105 L20.7673107,32.9879105 L20.7673107,33.2728233 L21.0522235,32.9879105 Z M32.7486553,29.2666338 L32.7638286,29.2666338 C34.6463612,29.2666338 36.2662077,29.7270957 37.5232056,30.7509248 C37.4937034,30.7776814 37.4638534,30.8042009 37.4336551,30.8304803 C36.2066819,31.8982279 34.6415764,32.4096427 32.8378132,32.4256282 L32.2319077,32.4256282 L28.5055531,31.152457 L32.7486553,29.2666338 Z M27.3782007,39.0694383 C26.8900683,38.174843 26.6416818,37.1586242 26.6416818,36.0694383 L29.046034,36.0694383 C29.046034,36.854304 29.2322798,37.4127907 29.6416818,37.8765653 L29.6416818,39.0694383 L27.3782007,39.0694383 Z M29.8488385,24.2485513 C29.7779454,24.3331269 29.7127404,24.4217224 29.6526842,24.5145825 C29.3815127,24.9338729 29.2531907,25.3738341 29.2531907,25.9039649 L26.8488385,25.9039649 C26.8488385,24.8107345 27.1113435,23.7925639 27.6238901,22.9039649 L29.8488385,22.9039649 L29.8488385,24.2485513 Z M32.8488385,26.4252562 C33.1497238,26.4200908 33.3247527,26.3864206 33.4209723,26.3468793 C33.4281388,26.2954318 33.433461,26.222565 33.433461,26.1259185 C33.433461,26.0362008 33.429542,25.9598655 33.4230437,25.8964122 C33.3515745,25.8895914 33.2650741,25.8853964 33.1633451,25.8853964 C32.9955041,25.8853964 32.9047473,25.8971138 32.8488385,25.9172096 L32.8488385,26.4252562 Z M33.4050397,26.4231545 C33.4042505,26.424954 33.4035127,26.4267172 33.4028287,26.4284404 C33.4046594,26.4238288 33.4065334,26.4181779 33.4084083,26.4114588 Z M32.7887985,25.9506807 C32.7871688,25.9520455 32.7855768,25.9534274 32.7840173,25.954826 C32.7886958,25.9506302 32.7937285,25.9444191 32.798847,25.9373666 Z M32.6416818,35.2666338 L32.6416818,36.0694383 C32.6416818,36.2025819 32.6287425,36.1712868 32.639394,36.1811952 C32.6846638,36.2233066 32.8068744,36.2655697 33.1633451,36.2655697 C33.5675242,36.2655697 33.7166918,36.2153787 33.7622633,36.1734285 C33.7392447,36.1945849 33.7589929,36.141277 33.7589929,35.803094 C33.7589929,35.4720485 33.7363524,35.4068955 33.7317841,35.4011742 C33.7340078,35.4039753 33.7070615,35.3899803 33.6222042,35.363935 C33.4282342,35.3043997 33.141943,35.2666338 32.7638286,35.2666338 L32.6416818,35.2666338 Z M33.7317841,35.4011742 C33.7316966,35.4010647 33.7316157,35.4009769 33.7315418,35.4009094 C33.7317287,35.4010799 33.7318664,35.4012205 33.7319528,35.4013317 Z"></path>
                </g>
            </g>
        </g>
    </g>
</svg>